<svg width="181" height="54" viewBox="0 0 181 54" fill="none" xmlns="http://www.w3.org/2000/svg">
<path d="M16.4534 46.6957H4.2236V52.2547H16.4534V46.6957Z" stroke="#0967F3" stroke-width="2.2236" stroke-miterlimit="10" stroke-linecap="round" stroke-linejoin="round"/>
<path d="M64.2609 52.2547H2" stroke="#0967F3" stroke-width="2.2236" stroke-miterlimit="10" stroke-linecap="round" stroke-linejoin="round"/>
<path d="M13.118 21.1242H7.55902V46.6957H13.118V21.1242Z" stroke="#0967F3" stroke-width="2.2236" stroke-miterlimit="10" stroke-linecap="round" stroke-linejoin="round"/>
<path d="M10.3385 21.1242C14.9437 21.1242 18.677 17.3909 18.677 12.7857C18.677 8.18048 14.9437 4.4472 10.3385 4.4472C5.73328 4.4472 2 8.18048 2 12.7857C2 17.3909 5.73328 21.1242 10.3385 21.1242Z" stroke="#0967F3" stroke-width="2.2236" stroke-miterlimit="10" stroke-linecap="round" stroke-linejoin="round"/>
<path d="M36.4658 47.2516C36.4658 50.0147 34.2259 52.2547 31.4627 52.2547C28.6996 52.2547 26.4596 50.0147 26.4596 47.2516C26.4596 46.6667 26.56 46.1052 26.7444 45.5835C27.4313 43.6405 29.2845 42.2484 31.4627 42.2484C34.2259 42.2484 36.4658 44.4884 36.4658 47.2516Z" stroke="#0967F3" stroke-width="2.2236" stroke-miterlimit="10" stroke-linecap="round" stroke-linejoin="round"/>
<path d="M58.7019 47.2516C58.7019 50.0147 56.4619 52.2547 53.6988 52.2547C50.9356 52.2547 48.6956 50.0147 48.6956 47.2516C48.6956 46.6667 48.796 46.1052 48.9804 45.5835C49.6674 43.6405 51.5205 42.2484 53.6988 42.2484C56.4619 42.2484 58.7019 44.4884 58.7019 47.2516Z" stroke="#0967F3" stroke-width="2.2236" stroke-miterlimit="10" stroke-linecap="round" stroke-linejoin="round"/>
<path d="M54.2547 47.2516C54.2547 47.5586 54.0058 47.8075 53.6988 47.8075C53.3917 47.8075 53.1429 47.5586 53.1429 47.2516C53.1429 47.1866 53.154 47.1242 53.1745 47.0662C53.2508 46.8503 53.4567 46.6957 53.6988 46.6957C54.0058 46.6957 54.2547 46.9445 54.2547 47.2516Z" stroke="#0967F3" stroke-width="2.2236" stroke-miterlimit="10" stroke-linecap="round" stroke-linejoin="round"/>
<path d="M32.0186 47.2516C32.0186 47.5586 31.7697 47.8075 31.4627 47.8075C31.1557 47.8075 30.9068 47.5586 30.9068 47.2516C30.9068 47.1866 30.918 47.1242 30.9385 47.0662C31.0148 46.8503 31.2207 46.6957 31.4627 46.6957C31.7697 46.6957 32.0186 46.9445 32.0186 47.2516Z" stroke="#0967F3" stroke-width="2.2236" stroke-miterlimit="10" stroke-linecap="round" stroke-linejoin="round"/>
<path d="M26.4594 45.5839H20.9006" stroke="#0967F3" stroke-width="2.2236" stroke-miterlimit="10" stroke-linecap="round" stroke-linejoin="round"/>
<path d="M48.6959 45.5839H36.4653" stroke="#0967F3" stroke-width="2.2236" stroke-miterlimit="10" stroke-linecap="round" stroke-linejoin="round"/>
<path d="M64.2609 45.5839H58.7018" stroke="#0967F3" stroke-width="2.2236" stroke-miterlimit="10" stroke-linecap="round" stroke-linejoin="round"/>
<path d="M23.1242 45.5838V38.913C23.1242 36.4569 25.1153 34.4658 27.5714 34.4658H27.5714V30.922C27.5714 27.3529 30.4647 24.4596 34.0337 24.4596H43.9355C46.9094 24.4596 49.6865 25.9459 51.3361 28.4203L55.3664 34.4658H55.3665C59.0506 34.4658 62.0373 37.4525 62.0373 41.1366V45.5838" stroke="#0967F3" stroke-width="2.2236" stroke-miterlimit="10" stroke-linecap="round" stroke-linejoin="round"/>
<path d="M43.1367 28.9068V34.4658H48.6957V34.4658C48.6957 31.3957 46.2068 28.9068 43.1367 28.9068H43.1367Z" stroke="#0967F3" stroke-width="2.2236" stroke-miterlimit="10" stroke-linecap="round" stroke-linejoin="round"/>
<path d="M38.6895 34.4658H32.0186V32.2654C32.0186 30.4105 33.5223 28.9068 35.3772 28.9068H38.6895V34.4658Z" stroke="#0967F3" stroke-width="2.2236" stroke-miterlimit="10" stroke-linecap="round" stroke-linejoin="round"/>
<path d="M43.1367 38.913H45.3603" stroke="#0967F3" stroke-width="2.2236" stroke-miterlimit="10" stroke-linecap="round" stroke-linejoin="round"/>
<path d="M12.611 12.2757C12.6555 12.1423 12.6777 12.04 12.6777 11.9689C12.6777 11.8177 12.6511 11.6887 12.5977 11.582C11.3614 11.5909 10.2184 11.6665 9.16889 11.8088V9.15379C9.16889 9.01148 9.16445 8.92698 9.15555 8.9003C10.0005 8.78467 10.9967 8.72686 12.1441 8.72686C12.6422 8.72686 13.0113 8.74465 13.2514 8.78022C13.2959 8.64681 13.3181 8.54007 13.3181 8.46002C13.3181 8.3355 13.2915 8.21988 13.2381 8.11314C12.7578 8.05978 12.1485 8.03309 11.4103 8.03309C9.7915 8.03309 8.29724 8.23766 6.9275 8.64681C6.89193 8.72686 6.87414 8.83359 6.87414 8.96701C6.87414 9.10042 6.90082 9.21605 6.95419 9.31389L7.42114 9.28721C7.51898 9.28721 7.5679 9.5318 7.5679 10.021V16.7185C7.5679 17.0743 7.68353 17.3322 7.91478 17.4923C8.14604 17.6524 8.51071 17.7324 9.00879 17.7324H9.59583C11.2947 17.7324 12.6599 17.6079 13.6917 17.3589C13.7273 17.2255 13.7451 17.1187 13.7451 17.0387C13.7451 16.9586 13.7273 16.843 13.6917 16.6918C13.4871 16.7452 12.9668 16.8163 12.1307 16.9053C11.3036 16.9853 10.6632 17.0253 10.2095 17.0253C9.8004 17.0253 9.52467 16.9675 9.38236 16.8519C9.24005 16.7363 9.16889 16.505 9.16889 16.1581V12.5159C10.672 12.3558 11.8194 12.2757 12.611 12.2757Z" fill="#CD3809"/>
<path d="M60.463 4.48975H70.9415V8.80443H69.1804V6.25085H64.0292V11.8643H69.1804V13.6254H64.0292V19.2389H69.1804V16.6853H70.9415V21H60.463V19.2389H62.0039V6.25085H60.463V4.48975ZM84.144 11.8863H82.3169V9.94914L80.996 8.58429H77.6279L76.4832 9.75102V11.9084L77.5619 13.009H82.1407L84.3641 15.3425V18.5785L82.0747 21H76.5273L74.2378 18.5785V15.8048H76.065V17.742L77.4078 19.1068H81.2162L82.3389 17.9401V15.9809L81.2822 14.9022H76.7034L74.458 12.5468V9.11262L76.7474 6.69112H81.8546L84.144 9.11262V11.8863ZM95.4944 21H89.0665V19.2389H91.2678V8.45221H88.2299V11.0058H86.5569V6.69112H98.004V11.0058H96.331V8.45221H93.2931V19.2389H95.4944V21ZM107.251 21V19.2389H108.704L107.757 16.5092H102.253L101.307 19.2389H102.782V21H98.1149V19.2389H99.2817L103.002 8.45221H102.077V6.69112H107.955V8.45221H107.008L110.729 19.2389H111.917V21H107.251ZM105.005 8.51825L102.848 14.7481H107.163L105.005 8.51825ZM122.379 15.8048H124.14V18.5785L121.851 21H116.303L114.014 18.5785V9.11262L116.303 6.69112H121.851L124.14 9.11262V11.8863H122.379V10.0152L120.992 8.58429H117.184L116.039 9.75102V17.9401L117.162 19.1068H120.97L122.379 17.6759V15.8048ZM126.993 19.2389H128.754V8.45221H126.993V6.69112H132.541V8.45221H130.78V19.2389H132.541V21H126.993V19.2389ZM138.123 21L135.834 18.5785V9.11262L138.123 6.69112H144.331L146.621 9.11262V18.5785L144.331 21H138.123ZM138.982 19.1068H143.451L144.595 17.9401V9.75102L143.473 8.58429H139.004L137.859 9.75102V17.9401L138.982 19.1068ZM153.718 19.2389H155.259V21H150.151V19.2389H151.692V8.45221H150.151V6.69112H154.73L161.158 18.8427V8.45221H159.617V6.69112H164.724V8.45221H163.184V21H160.146L153.718 8.87047V19.2389ZM168.016 6.69112H178.495V11.0058H176.733V8.45221H171.582V12.965H176.733V14.7261H171.582V19.2389H176.733V16.6853H178.495V21H168.016V19.2389H169.557V8.45221H168.016V6.69112Z" fill="#CD3809"/>
<path d="M58.7019 23.2014H180.256V24.302H58.7019V23.2014Z" fill="#CD3809"/>
<path d="M130.814 31.173H136.692V32.9341H135.679L139.554 45.9221H140.655V47.6832H135.988V45.9221H137.529L136.516 42.532H130.991L129.978 45.9221H131.519V47.6832H126.852V45.9221H127.953L131.827 32.9341H130.814V31.173ZM133.742 33.2643L131.519 40.7709H135.988L133.742 33.2643ZM148.959 47.6832V49.8846H147.308V47.6832H145.04L142.751 45.2617V35.7958L145.04 33.3743H151.248L153.537 35.7958V45.2617L151.248 47.6832H148.959ZM147.308 45.7901V43.1484H148.959V45.7901H150.368L151.512 44.6233V36.4342L150.39 35.2675H145.921L144.776 36.4342V44.6233L145.899 45.7901H147.308ZM165.169 33.3743H170.056V35.1354H168.736V45.2617L166.446 47.6832H160.458L158.169 45.2617V35.1354H156.848V33.3743H161.735V35.1354H160.194V44.6233L161.317 45.7901H165.566L166.71 44.6233V35.1354H165.169V33.3743ZM173.143 45.9221H174.904V35.1354H173.143V33.3743H178.691V35.1354H176.93V45.9221H178.691V47.6832H173.143V45.9221Z" fill="#CD3809"/>
<path d="M126.522 49.8846H180.232V50.9853H126.522V49.8846Z" fill="#CD3809"/>
</svg>
